<?xml version="1.0" standalone="no"?>
<!DOCTYPE svg PUBLIC "-//W3C//DTD SVG 20010904//EN"
 "http://www.w3.org/TR/2001/REC-SVG-20010904/DTD/svg10.dtd">
<svg version="1.0" xmlns="http://www.w3.org/2000/svg"
 width="400.000000pt" height="400.000000pt" viewBox="0 0 400.000000 400.000000"
 preserveAspectRatio="xMidYMid meet">

<g transform="translate(0.000000,400.000000) scale(0.100000,-0.100000)"
fill="#000000" stroke="none">
<path d="M0 2000 l0 -2000 1998 2 1997 3 0 1995 0 1995 -1997 3 -1998 2 0
-2000z m928 83 c15 -3 21 -11 18 -22 -2 -9 -7 -28 -10 -42 -6 -27 -6 -27 -48
-12 -33 11 -51 12 -89 3 -76 -19 -125 -89 -94 -137 23 -34 61 -46 128 -40 l59
5 -7 -36 c-4 -21 -10 -41 -15 -46 -5 -4 -53 -6 -107 -4 -149 6 -213 47 -213
136 0 104 76 178 210 202 43 8 120 5 168 -7z m856 1 c20 -8 21 -38 2 -53 -8
-7 -34 -11 -58 -9 -36 2 -44 7 -46 26 -2 16 3 25 20 31 27 12 60 13 82 5z
m726 -16 c0 -12 -12 -89 -27 -170 l-26 -148 -59 0 c-47 0 -58 3 -58 16 0 17
49 289 56 312 2 8 23 12 59 12 50 0 55 -2 55 -22z m350 7 c37 -19 70 -66 77
-110 4 -24 10 -34 19 -31 7 3 29 8 50 12 31 6 36 4 31 -9 -3 -9 -9 -33 -13
-53 l-7 -38 58 51 c63 57 100 72 122 50 12 -12 11 -29 -13 -120 -15 -59 -25
-110 -21 -113 12 -13 47 28 47 55 1 39 33 102 71 139 64 62 160 63 167 0 7
-57 -41 -96 -133 -107 -45 -5 -50 -9 -53 -33 -2 -17 4 -34 18 -48 28 -28 72
-21 112 17 20 19 28 22 28 12 0 -17 -33 -50 -67 -68 -39 -20 -91 -13 -119 14
l-26 26 -20 -26 c-22 -28 -72 -35 -81 -11 -3 8 5 54 19 102 26 97 30 134 13
134 -6 0 -38 -26 -71 -58 -54 -52 -61 -64 -72 -117 -10 -53 -15 -60 -38 -63
l-26 -3 28 115 27 116 -23 0 c-20 0 -24 -5 -24 -30 0 -59 -63 -155 -121 -186
-155 -80 -310 19 -283 181 21 127 118 215 237 215 32 0 71 -7 87 -15z m-878
-40 c-4 -32 -2 -35 22 -35 21 0 26 -5 26 -24 0 -21 -6 -25 -32 -28 l-33 -3
-19 -97 -18 -98 -59 0 c-67 0 -65 -6 -44 103 19 99 19 97 -6 97 -31 0 -22 42
11 50 16 4 26 14 28 27 3 17 14 24 45 31 78 18 83 16 79 -23z m-732 -53 l23
-18 -16 -93 c-9 -50 -13 -99 -10 -107 4 -11 -7 -14 -56 -14 -48 0 -61 3 -61
15 0 18 4 18 -45 0 -79 -28 -160 -13 -171 32 -13 51 24 80 123 94 99 13 113
18 113 36 0 14 -12 15 -94 11 l-93 -5 10 28 c14 35 18 36 148 38 89 1 110 -2
129 -17z m160 -1 c0 -18 1 -18 37 0 93 47 183 6 183 -84 0 -82 -68 -147 -155
-147 -22 0 -50 7 -62 15 -19 13 -21 13 -27 -8 -3 -12 -6 -35 -6 -50 0 -33 -12
-39 -77 -35 l-50 3 17 90 c10 50 23 123 30 163 l12 72 49 0 c41 0 49 -3 49
-19z m374 -23 c-4 -24 -14 -79 -23 -123 l-16 -80 -57 -3 c-44 -2 -58 0 -58 11
0 7 9 62 20 122 11 60 20 110 20 112 0 2 27 3 60 3 l60 0 -6 -42z m536 22 c24
-24 24 -19 5 -116 -8 -43 -12 -87 -9 -96 5 -16 -2 -18 -55 -18 -48 0 -61 3
-61 15 0 8 -2 15 -4 15 -2 0 -20 -7 -39 -15 -44 -18 -113 -19 -147 -2 -19 10
-25 20 -25 46 0 48 34 70 125 82 94 11 110 17 110 36 0 14 -13 15 -94 11 l-94
-5 10 28 c12 35 19 36 151 38 95 1 109 -1 127 -19z"/>
<path d="M2733 2068 c-68 -18 -133 -131 -133 -230 0 -146 138 -199 224 -86 28
38 56 126 56 175 0 92 -72 161 -147 141z"/>
<path d="M3328 1913 c-29 -31 -62 -92 -54 -100 9 -9 65 8 91 29 34 26 49 66
34 84 -18 22 -43 17 -71 -13z"/>
<path d="M1073 1853 c-31 -6 -47 -27 -30 -41 24 -21 96 10 97 41 0 7 -29 7
-67 0z"/>
<path d="M1437 1929 c-47 -28 -39 -99 11 -99 36 0 49 10 62 44 18 48 -27 82
-73 55z"/>
<path d="M2150 1853 c-47 -9 -65 -37 -31 -48 26 -8 68 10 81 35 12 22 6 23
-50 13z"/>
</g>
</svg>
