<?xml version="1.0" standalone="no"?>
<!DOCTYPE svg PUBLIC "-//W3C//DTD SVG 20010904//EN"
 "http://www.w3.org/TR/2001/REC-SVG-20010904/DTD/svg10.dtd">
<svg version="1.0" xmlns="http://www.w3.org/2000/svg"
 width="399.000000pt" height="399.000000pt" viewBox="0 0 399.000000 399.000000"
 preserveAspectRatio="xMidYMid meet">

<g transform="translate(0.000000,399.000000) scale(0.100000,-0.100000)"
fill="#000000" stroke="none">
<path d="M0 1995 l0 -1995 1995 0 1995 0 0 1995 0 1995 -1995 0 -1995 0 0
-1995z m1610 223 l0 -152 63 62 c59 59 65 62 111 62 l48 0 -66 -72 c-56 -62
-64 -74 -53 -87 8 -9 40 -47 72 -86 l58 -70 -47 -3 c-56 -4 -66 4 -135 96
l-46 64 -3 -81 -3 -81 -39 0 -40 0 0 250 0 250 40 0 40 0 0 -152z m1011 40 c0
-62 3 -107 6 -100 7 18 57 42 88 42 38 0 83 -26 100 -60 11 -21 15 -61 15
-150 l0 -120 -40 0 -40 0 0 100 c0 137 -21 174 -83 151 -39 -15 -47 -41 -47
-150 l0 -101 -40 0 -40 0 0 250 0 250 40 0 40 0 1 -112z m1109 -138 l0 -250
-40 0 -40 0 0 250 0 250 40 0 40 0 0 -250z m-3220 65 c15 -8 30 -20 33 -27 3
-9 13 -5 31 12 23 20 38 25 83 25 47 0 58 -4 78 -27 29 -34 37 -85 33 -203
l-3 -90 -37 -3 -36 -3 -4 116 c-3 103 -5 118 -23 131 -12 9 -30 12 -45 9 -48
-12 -55 -28 -58 -146 l-4 -110 -36 3 -37 3 -5 115 c-5 112 -6 115 -32 129 -25
14 -29 14 -55 -5 -27 -20 -28 -25 -33 -130 l-5 -109 -37 -3 -38 -3 0 160 0
161 35 0 c29 0 35 -4 35 -22 l0 -21 23 20 c39 36 89 43 137 18z m907 -5 c43
-26 55 -72 51 -200 l-3 -105 -37 -3 -36 -3 -4 111 c-3 103 -5 113 -27 131 -29
24 -43 24 -72 0 -22 -17 -24 -29 -29 -128 l-5 -108 -37 -3 -38 -3 0 161 0 161
38 -3 c31 -2 36 -6 34 -23 -4 -20 -3 -19 20 1 43 39 96 44 145 14z m726 -5
l28 -18 -27 -28 c-25 -26 -29 -28 -45 -13 -25 22 -84 15 -84 -10 0 -22 15 -32
74 -46 80 -20 110 -75 76 -139 -20 -39 -62 -54 -140 -49 -48 3 -71 9 -85 24
l-20 20 24 23 c23 22 26 22 48 7 44 -31 120 -12 105 27 -3 7 -32 21 -66 30
-73 21 -101 45 -101 90 0 66 59 110 140 104 25 -2 58 -12 73 -22z m301 11 c47
-20 53 -34 23 -63 -24 -24 -25 -25 -50 -8 -53 35 -127 -18 -127 -90 0 -38 50
-85 91 -85 18 0 40 7 50 16 15 14 19 13 38 -14 12 -17 21 -33 21 -36 0 -15
-65 -36 -113 -36 -90 0 -156 59 -164 147 -11 125 115 217 231 169z m682 -5
c54 -24 86 -71 92 -133 10 -106 -65 -183 -175 -180 -102 3 -163 63 -163 163 0
70 27 115 90 147 54 27 101 28 156 3z m363 9 c80 -23 133 -117 112 -197 -23
-84 -76 -123 -169 -123 -95 0 -161 57 -169 147 -11 122 102 209 226 173z
m-2587 -109 c5 -120 14 -141 59 -141 56 0 69 27 69 145 l0 105 40 0 40 0 0
-160 0 -160 -35 0 c-29 0 -35 4 -35 20 0 20 0 20 -29 -1 -36 -27 -100 -29
-137 -5 -41 28 -54 73 -54 196 l0 110 39 0 38 0 5 -109z m-514 -366 c18 -17
18 -73 0 -92 -23 -22 -87 -21 -104 2 -50 68 43 148 104 90z m290 19 c33 -9 21
-30 -16 -26 -26 3 -34 -1 -44 -23 -10 -22 -9 -29 10 -47 17 -17 26 -19 43 -12
20 9 20 11 5 26 -22 23 -20 28 9 28 22 0 25 -4 25 -36 l0 -35 -52 3 c-46 3
-54 6 -62 29 -12 36 -1 74 26 87 28 13 28 13 56 6z m261 -19 c19 -18 18 -72 0
-90 -8 -8 -30 -17 -48 -19 -67 -8 -98 71 -44 114 29 23 66 21 92 -5z m1155 19
c26 -10 18 -24 -14 -24 -37 0 -39 -15 -3 -32 33 -15 42 -47 19 -63 -18 -14
-66 -8 -66 7 0 6 7 8 15 4 17 -6 45 2 45 14 0 4 -13 13 -30 20 -58 24 -24 96
34 74z m170 -7 c15 -11 16 -17 7 -35 -16 -30 -14 -33 17 -26 23 6 25 5 15 -7
-7 -8 -10 -24 -7 -35 5 -17 0 -19 -46 -15 -56 3 -72 20 -52 52 7 10 9 25 6 32
-5 14 20 47 35 47 4 0 15 -6 25 -13z m732 -2 c20 -15 18 -16 -31 -18 -26 -2
-30 -6 -33 -33 -4 -39 21 -63 48 -46 18 11 30 7 30 -10 0 -4 -20 -8 -45 -8
-34 0 -47 5 -55 19 -18 34 -12 68 16 90 32 25 44 26 70 6z m322 -12 c17 -23
15 -78 -3 -93 -20 -16 -80 -17 -99 -1 -16 14 -21 67 -8 87 24 35 85 39 110 7z
m282 12 c7 -8 9 -15 4 -16 -5 0 -22 -2 -39 -2 -26 -2 -30 -6 -33 -34 -4 -38
28 -63 54 -42 11 9 18 9 26 1 12 -12 8 -15 -41 -25 -26 -6 -71 31 -71 58 0 53
71 95 100 60z m-3090 -5 c0 -5 -13 -10 -30 -10 -20 0 -30 -5 -30 -15 0 -10 10
-15 30 -15 38 0 40 -18 3 -22 -22 -2 -29 -9 -31 -31 -6 -49 -22 -17 -22 44 l0
59 40 0 c22 0 40 -4 40 -10z m250 -40 c0 -46 2 -50 24 -50 14 0 28 -4 31 -10
4 -6 -10 -10 -34 -10 l-41 0 0 60 c0 33 4 60 10 60 6 0 10 -22 10 -50z m305
15 c0 -16 4 -36 8 -43 14 -21 -13 -42 -54 -42 l-39 0 0 61 0 60 43 -3 c39 -3
42 -5 42 -33z m120 -21 c29 -67 29 -64 10 -64 -8 0 -15 5 -15 10 0 16 -52 11
-72 -7 -10 -9 -18 -11 -18 -5 0 22 49 122 60 122 5 0 21 -25 35 -56z m75 6 c0
-47 2 -50 25 -50 14 0 25 -4 25 -10 0 -5 -18 -10 -40 -10 l-40 0 0 60 c0 47 3
60 15 60 11 0 15 -12 15 -50z m215 -6 c29 -67 29 -64 10 -64 -8 0 -15 5 -15
10 0 14 -53 13 -68 -2 -23 -23 -23 0 0 56 13 31 29 56 36 56 7 0 23 -25 37
-56z m125 46 c0 -5 -13 -10 -30 -10 -20 0 -30 -5 -30 -15 0 -10 10 -15 30 -15
38 0 40 -18 3 -22 -22 -2 -29 -9 -31 -31 -6 -49 -22 -17 -22 44 l0 59 40 0
c22 0 40 -4 40 -10z m110 0 c0 -5 -13 -10 -30 -10 -20 0 -30 -5 -30 -15 0 -10
10 -15 30 -15 38 0 40 -18 3 -22 -20 -2 -29 -9 -31 -25 -7 -47 -22 -21 -22 37
l0 60 40 0 c22 0 40 -4 40 -10z m103 -47 c25 -55 26 -93 2 -60 -13 19 -60 23
-70 7 -3 -5 -12 -10 -20 -10 -10 0 -6 16 13 60 15 33 32 60 38 60 6 0 23 -26
37 -57z m67 -3 c0 -33 -4 -60 -10 -60 -6 0 -10 27 -10 60 0 33 4 60 10 60 6 0
10 -27 10 -60z m120 45 c10 -12 9 -20 -3 -39 -14 -20 -14 -26 -1 -44 8 -12 10
-23 5 -26 -5 -4 -20 8 -33 26 l-23 33 -5 -30 c-9 -51 -25 -33 -28 33 l-3 62
39 0 c23 0 45 -6 52 -15z m475 -20 c0 -25 -5 -31 -30 -35 -21 -4 -31 -11 -33
-28 -7 -46 -22 -20 -22 39 l0 60 43 -3 c39 -3 42 -5 42 -33z m55 -14 c0 -48
10 -63 38 -54 7 3 12 23 12 54 0 37 4 49 15 49 11 0 15 -11 15 -41 0 -59 -14
-79 -55 -79 -41 0 -55 20 -55 79 0 30 4 41 15 41 11 0 15 -12 15 -49z m186 19
c1 -14 5 -33 9 -42 16 -38 -16 -59 -72 -50 -21 4 -23 10 -23 64 l0 59 43 -3
c37 -3 42 -6 43 -28z m64 -20 c0 -47 2 -50 25 -50 14 0 25 -4 25 -10 0 -5 -16
-10 -35 -10 l-35 0 0 60 c0 33 4 60 10 60 6 0 10 -22 10 -50z m100 -10 c0 -47
-3 -60 -15 -60 -12 0 -15 13 -15 60 0 47 3 60 15 60 12 0 15 -13 15 -60z m295
25 c0 -25 -4 -30 -27 -33 -22 -3 -28 -9 -28 -28 0 -15 -6 -24 -15 -24 -12 0
-15 13 -15 61 l0 60 43 -3 c39 -3 42 -5 42 -33z m205 -14 c0 -46 2 -50 25 -53
14 -2 25 -7 25 -12 0 -9 -21 -11 -60 -7 -5 1 -10 28 -10 61 0 33 4 60 10 60 6
0 10 -22 10 -49z m100 -11 c0 -33 -4 -60 -10 -60 -5 0 -10 3 -11 8 -5 70 -2
112 9 112 8 0 12 -19 12 -60z m184 38 l15 -21 20 24 c28 35 37 16 12 -24 -11
-19 -21 -44 -21 -56 0 -11 -4 -21 -10 -21 -5 0 -10 10 -10 23 0 12 -11 39 -25
60 -20 28 -22 37 -11 37 8 0 22 -10 30 -22z"/>
<path d="M3014 2120 c-56 -23 -73 -112 -29 -155 35 -36 88 -34 126 4 45 46 32
123 -26 149 -30 14 -42 14 -71 2z"/>
<path d="M3395 2116 c-59 -26 -72 -101 -26 -147 49 -48 120 -37 146 24 34 82
-41 158 -120 123z"/>
<path d="M302 1693 c-10 -19 0 -57 17 -68 34 -21 77 38 51 70 -17 20 -57 19
-68 -2z"/>
<path d="M851 1688 c-15 -39 13 -74 49 -63 25 8 37 50 20 70 -19 23 -59 19
-69 -7z"/>
<path d="M2230 1700 c0 -5 5 -10 10 -10 6 0 10 5 10 10 0 6 -4 10 -10 10 -5 0
-10 -4 -10 -10z"/>
<path d="M2220 1641 c0 -12 6 -21 16 -21 9 0 14 7 12 17 -5 25 -28 28 -28 4z"/>
<path d="M3232 1698 c-29 -29 7 -86 47 -73 26 8 38 50 21 70 -15 18 -51 20
-68 3z"/>
<path d="M1002 1698 c5 -15 37 -18 41 -3 1 6 -9 12 -22 13 -16 3 -22 -1 -19
-10z"/>
<path d="M1007 1653 c-14 -13 -6 -23 18 -23 16 0 25 6 25 15 0 15 -31 21 -43
8z"/>
<path d="M1136 1674 c-9 -22 -8 -24 9 -24 8 0 15 9 15 20 0 24 -15 27 -24 4z"/>
<path d="M1426 1674 c-9 -22 -8 -24 9 -24 8 0 15 6 15 14 0 22 -17 28 -24 10z"/>
<path d="M1770 1693 c0 -6 -3 -18 -6 -27 -4 -11 -1 -16 10 -16 9 0 16 6 16 13
0 16 -20 46 -20 30z"/>
<path d="M1940 1695 c0 -8 9 -15 20 -15 11 0 20 7 20 15 0 8 -9 15 -20 15 -11
0 -20 -7 -20 -15z"/>
<path d="M2412 1698 c5 -15 37 -18 41 -3 1 6 -9 12 -22 13 -16 3 -22 -1 -19
-10z"/>
<path d="M2660 1694 c0 -9 7 -14 17 -12 25 5 28 28 4 28 -12 0 -21 -6 -21 -16z"/>
<path d="M2660 1645 c0 -11 7 -15 23 -13 12 2 22 8 22 13 0 6 -10 11 -22 13
-16 2 -23 -2 -23 -13z"/>
<path d="M3120 1695 c0 -10 7 -15 18 -13 21 4 19 22 -2 26 -10 2 -16 -3 -16
-13z"/>
</g>
</svg>
