<?xml version="1.0" standalone="no"?>
<!DOCTYPE svg PUBLIC "-//W3C//DTD SVG 20010904//EN"
 "http://www.w3.org/TR/2001/REC-SVG-20010904/DTD/svg10.dtd">
<svg version="1.0" xmlns="http://www.w3.org/2000/svg"
 width="400.000000pt" height="400.000000pt" viewBox="0 0 400.000000 400.000000"
 preserveAspectRatio="xMidYMid meet">

<g transform="translate(0.000000,400.000000) scale(0.100000,-0.100000)"
fill="#000000" stroke="none">
<path d="M1245 2974 c-108 -22 -138 -30 -189 -51 -87 -36 -164 -92 -237 -171
-231 -250 -269 -697 -101 -1191 30 -89 32 -90 52 -26 7 22 34 83 61 135 220
433 607 728 1089 832 89 19 136 22 300 22 166 1 211 -3 305 -23 299 -63 575
-195 788 -375 l67 -57 0 80 c0 369 -164 657 -442 773 -191 80 -483 77 -728 -7
-77 -27 -128 -38 -190 -42 -80 -4 -94 -2 -231 41 -81 24 -181 49 -224 55 -72
10 -277 13 -320 5z"/>
<path d="M2257 2225 c-301 -57 -552 -290 -639 -592 -20 -66 -23 -101 -22 -228
0 -141 2 -156 32 -245 106 -317 370 -533 700 -571 142 -16 328 19 462 86 165
83 326 265 389 440 43 120 54 198 49 344 -4 107 -10 139 -36 214 -94 272 -310
471 -587 543 -86 23 -254 27 -348 9z"/>
<path d="M1618 2177 c-298 -154 -531 -407 -649 -705 -35 -88 -79 -245 -79
-282 1 -55 185 -323 320 -463 214 -223 387 -290 507 -195 8 7 -14 34 -76 96
-371 370 -424 930 -130 1363 24 35 80 101 124 147 45 45 78 82 74 82 -5 0 -45
-19 -91 -43z"/>
</g>
</svg>
